# xmcd CD database file
#
# Track frame offsets:
#	150
#	21680
#	44487
#	65276
#	87623
#	110652
#	128632
#	144557
#	166409
#	176622
#
# Disc length: 2609 seconds
#
# Revision: 0
# Processed by: cddbd v1.5.2PL0 Copyright (c) Steve Scherf et al.
# Submitted via: CDex 1.70beta2
#
DISCID=920a2f0a
DTITLE=Jerry Rivera - 20 Exitos Originales
DYEAR=1900
DGENRE=Salsa
TTITLE0=Me Estoy Enloqueciendo Por Ti
TTITLE1=Amores Como El Nuestro
TTITLE2=Casi Un Hechizo
TTITLE3=Cara De Nino
TTITLE4=Cuenta Conmigo
TTITLE5=Esa Nina
TTITLE6=Ese
TTITLE7=Si Quieras Amar
TTITLE8=Una Puerta Abierta
TTITLE9=Amor De Novela
EXTD=
EXTT0=
EXTT1=
EXTT2=
EXTT3=
EXTT4=
EXTT5=
EXTT6=
EXTT7=
EXTT8=
EXTT9=
PLAYORDER=
